<?xml version="1.0" encoding="UTF-8"?>
<svg width="20px" height="22px" viewBox="0 0 20 22" version="1.1" xmlns="http://www.w3.org/2000/svg" xmlns:xlink="http://www.w3.org/1999/xlink">
    <!-- Generator: Sketch 40.1 (33804) - http://www.bohemiancoding.com/sketch -->
    <title>icon-music</title>
    <desc>Created with Sketch.</desc>
    <defs></defs>
    <g id="Light" stroke="none" stroke-width="1" fill="none" fill-rule="evenodd">
        <g id="icon-music">
            <g id="ic_album_black_24px" transform="translate(1.000000, 1.000000)">
                <polygon id="Shape" points="0 0 20 0 20 20 0 20"></polygon>
                <path d="M10,1.66666667 C5.4,1.66666667 1.66666667,5.4 1.66666667,10 C1.66666667,14.6 5.4,18.3333333 10,18.3333333 C14.6,18.3333333 18.3333333,14.6 18.3333333,10 C18.3333333,5.4 14.6,1.66666667 10,1.66666667 L10,1.66666667 Z M10,13.75 C7.925,13.75 6.25,12.075 6.25,10 C6.25,7.925 7.925,6.25 10,6.25 C12.075,6.25 13.75,7.925 13.75,10 C13.75,12.075 12.075,13.75 10,13.75 L10,13.75 Z M10,9.16666667 C9.54166667,9.16666667 9.16666667,9.54166667 9.16666667,10 C9.16666667,10.4583333 9.54166667,10.8333333 10,10.8333333 C10.4583333,10.8333333 10.8333333,10.4583333 10.8333333,10 C10.8333333,9.54166667 10.4583333,9.16666667 10,9.16666667 L10,9.16666667 Z" id="Shape" fill="#A6A4A2"></path>
            </g>
        </g>
    </g>
</svg>